<svg xmlns="http://www.w3.org/2000/svg" width="400" height="400" viewBox="0 0 400 400" fill="none">
  <rect width="400" height="400" fill="#e4e4e7"/>
  <path d="M180 160C180 142.327 194.327 128 212 128V128C229.673 128 244 142.327 244 160V200C244 217.673 229.673 232 212 232V232C194.327 232 180 217.673 180 200V160Z" fill="#a1a1aa"/>
  <path d="M156 220C156 211.164 163.164 204 172 204H252C260.836 204 268 211.164 268 220V260C268 268.836 260.836 276 252 276H172C163.164 276 156 268.836 156 260V220Z" fill="#a1a1aa"/>
  <circle cx="212" cy="248" r="8" fill="#d4d4d8"/>
</svg>
